<svg width="149" height="74" viewBox="0 0 149 74" xmlns="http://www.w3.org/2000/svg"><g fill="none" fill-rule="evenodd"><g><path d="M73.435 37.176c0 20.28-16.43 36.697-36.695 36.697C16.476 73.873.044 57.455.044 37.176.044 16.912 16.476.48 36.74.48c20.266 0 36.695 16.432 36.695 36.696" fill="#C5222A"/><path d="M20.728 19.412v12.59c1.916-2.284 4.214-3.435 6.88-3.435 1.372 0 2.602.26 3.704.783 1.105.516 1.933 1.18 2.49 1.984.562.813.942 1.703 1.146 2.684.204.975.306 2.495.306 4.555v13.464h-5.957V39.91c0-2.405-.107-3.93-.334-4.577-.227-.652-.624-1.163-1.197-1.542-.572-.386-1.287-.577-2.15-.577-.985 0-1.87.248-2.64.737-.787.493-1.352 1.23-1.71 2.217-.364.986-.545 2.444-.538 4.373l-.007 11.497h-5.947V19.412h5.955" fill="#fff"/><path d="M44.182 19.412v12.59c1.917-2.284 4.213-3.435 6.878-3.435 1.368 0 2.604.26 3.71.783 1.1.516 1.93 1.18 2.485 1.984.56.813.94 1.703 1.145 2.684.204.975.307 2.495.307 4.555v13.464h-5.95V39.91c0-2.405-.112-3.93-.34-4.577-.227-.652-.623-1.163-1.198-1.542-.568-.386-1.288-.577-2.15-.577-.987 0-1.872.248-2.643.737-.776.493-1.343 1.23-1.706 2.217-.357.986-.538 2.444-.538 4.373v11.497h-5.95V19.412h5.95" fill="#fff"/><path d="M95.595 40.912l4.28-15.693 4.28 15.692h-8.56m7.526-21.498H96.58l-9.79 32.813h5.904l1.77-6.494h10.774l1.772 6.494h5.903l-9.79-32.813" fill="#fff"/><path d="M122.648 35.01V24.185h5.067c3.063 0 4.772 2.28 4.772 5.412 0 3.13-1.71 5.41-4.772 5.41h-5.067m5.706-15.594h-11.166v32.813h5.46V39.83h5.706c6.143 0 9.692-4.12 9.692-10.232 0-6.084-3.542-10.184-9.692-10.184" fill="#fff"/><path d="M143.404 19.414h5.46v32.812h-5.46V19.414z" fill="#fff"/></g></g></svg>
